<?xml version="1.0" standalone="no"?>
<!DOCTYPE svg PUBLIC "-//W3C//DTD SVG 20010904//EN"
 "http://www.w3.org/TR/2001/REC-SVG-20010904/DTD/svg10.dtd">
<svg version="1.0" xmlns="http://www.w3.org/2000/svg"
 width="1280.000000pt" height="940.000000pt" viewBox="0 0 1280.000000 940.000000"
 preserveAspectRatio="xMidYMid meet">
<metadata>
Created by potrace 1.15, written by Peter Selinger 2001-2017
</metadata>
<g transform="translate(0.000000,940.000000) scale(0.100000,-0.100000)"
fill="#EFC02A" stroke="none">
<path d="M10346 9385 c-140 -36 -124 -22 -917 -814 -805 -806 -778 -774 -819
-937 -33 -126 -23 -245 29 -359 35 -75 60 -104 251 -290 130 -126 168 -158
236 -193 121 -62 231 -86 374 -79 127 6 190 22 294 74 89 44 127 74 256 200
l106 102 939 -940 c995 -995 979 -981 1120 -1029 71 -25 189 -27 264 -4 55 16
64 24 192 167 140 158 166 331 72 497 -16 28 -382 402 -981 1002 l-956 957
220 223 c244 246 279 294 314 433 24 93 25 177 5 264 -30 126 -61 168 -299
407 -227 228 -266 258 -385 302 -85 31 -229 39 -315 17z"/>
<path d="M3170 5095 l-135 -135 -1518 0 -1518 0 48 -61 c223 -285 608 -677
868 -885 221 -176 470 -329 657 -403 167 -66 529 -157 798 -200 330 -54 677
-87 1058 -101 304 -11 429 -26 589 -71 352 -99 574 -294 644 -567 26 -103 26
-262 -1 -368 -41 -161 -160 -356 -337 -550 -244 -268 -705 -607 -1173 -863
-104 -57 -128 -76 -252 -199 l-138 -137 0 -277 0 -278 684 0 684 0 57 34 c183
111 570 192 1080 227 242 16 862 13 1110 -6 344 -26 600 -68 800 -132 109 -35
238 -93 250 -113 4 -7 237 -10 701 -10 l694 0 0 274 0 274 -93 86 c-319 293
-692 571 -977 726 -189 102 -290 198 -388 365 -107 181 -189 484 -193 702 -1
95 34 210 117 383 214 446 585 774 1050 929 271 91 420 109 954 121 391 9 554
17 765 41 327 36 583 108 661 186 l34 34 0 279 0 280 28 6 c82 18 105 27 144
57 24 18 54 53 68 77 23 42 25 55 25 180 0 155 -8 176 -78 207 -40 17 -181 18
-3837 21 l-3795 2 -135 -135z"/>
</g>
</svg>
